<?xml version="1.0" encoding="UTF-8" standalone="no"?>
<!-- Created with Inkscape (http://www.inkscape.org/) -->

<svg
   xmlns:dc="http://purl.org/dc/elements/1.1/"
   xmlns:cc="http://creativecommons.org/ns#"
   xmlns:rdf="http://www.w3.org/1999/02/22-rdf-syntax-ns#"
   xmlns:svg="http://www.w3.org/2000/svg"
   xmlns="http://www.w3.org/2000/svg"
   xmlns:sodipodi="http://sodipodi.sourceforge.net/DTD/sodipodi-0.dtd"
   xmlns:inkscape="http://www.inkscape.org/namespaces/inkscape"
   width="64px"
   height="64px"
   id="svg2993"
   version="1.1"
   inkscape:version="0.48.4 r9939"
   sodipodi:docname="favicon.svg"
   inkscape:export-filename="T:\source\codr-io\public\images\favicon-32.png"
   inkscape:export-xdpi="45"
   inkscape:export-ydpi="45">
  <defs
     id="defs2995" />
  <sodipodi:namedview
     id="base"
     pagecolor="#ffffff"
     bordercolor="#666666"
     borderopacity="1.0"
     inkscape:pageopacity="0.0"
     inkscape:pageshadow="2"
     inkscape:zoom="7.4519128"
     inkscape:cx="34.650662"
     inkscape:cy="32"
     inkscape:current-layer="layer1"
     showgrid="true"
     inkscape:document-units="px"
     inkscape:grid-bbox="true"
     inkscape:window-width="1535"
     inkscape:window-height="878"
     inkscape:window-x="57"
     inkscape:window-y="-8"
     inkscape:window-maximized="1" />
  <metadata
     id="metadata2998">
    <rdf:RDF>
      <cc:Work
         rdf:about="">
        <dc:format>image/svg+xml</dc:format>
        <dc:type
           rdf:resource="http://purl.org/dc/dcmitype/StillImage" />
        <dc:title></dc:title>
      </cc:Work>
    </rdf:RDF>
  </metadata>
  <g
     id="layer1"
     inkscape:label="Layer 1"
     inkscape:groupmode="layer">
    <rect
       style="fill:#319ac2;fill-opacity:1;stroke:none"
       id="rect3769"
       width="64"
       height="64"
       x="0"
       y="0"
       rx="7.6999998" />
    <path
       id="path3775"
       d="m 22.45731,44.251329 -1.412925,1.412942 q -0.282576,0.282575 -0.649969,0.282575 -0.367386,0 -0.649961,-0.282575 L 6.5757322,32.4955 q -0.2825754,-0.282575 -0.2825754,-0.649961 0,-0.367393 0.2825754,-0.649977 L 19.744455,18.026808 q 0.282575,-0.282576 0.649961,-0.282576 0.367393,0 0.649969,0.282576 l 1.412925,1.412924 q 0.282575,0.282576 0.282575,0.649978 0,0.367385 -0.282575,0.649961 L 11.351538,31.845491 22.45731,42.951295 q 0.282575,0.282583 0.282575,0.649969 0,0.367393 -0.282575,0.649969 z M 39.158429,14.098816 28.617808,50.581327 q -0.113051,0.367386 -0.438012,0.551055 -0.324952,0.183669 -0.664105,0.07064 l -1.752078,-0.480389 q -0.367394,-0.11305 -0.551063,-0.438012 -0.183668,-0.32496 -0.07064,-0.692354 L 35.682529,13.109766 q 0.113052,-0.367393 0.438012,-0.55107 0.324953,-0.183669 0.664106,-0.07064 l 1.752078,0.480397 q 0.367394,0.113051 0.551062,0.438011 0.183669,0.324953 0.07064,0.692346 z M 57.724581,32.4955 44.555859,45.664271 q -0.282575,0.282575 -0.649961,0.282575 -0.367393,0 -0.649969,-0.282575 l -1.412925,-1.412942 q -0.282575,-0.282576 -0.282575,-0.649961 0,-0.367394 0.282575,-0.649977 L 52.948776,31.845587 41.843004,20.739775 q -0.282575,-0.282576 -0.282575,-0.649969 0,-0.367394 0.282575,-0.64997 l 1.412925,-1.412932 q 0.282576,-0.282576 0.649969,-0.282576 0.367386,0 0.649961,0.282576 l 13.168722,13.168762 q 0.282576,0.282583 0.282576,0.649969 0,0.367394 -0.282576,0.649969 z"
       inkscape:connector-curvature="0"
       style="fill:#ffffff" />
    <rect
       style="fill:#ffffff;fill-opacity:1;stroke:none"
       id="rect2984"
       width="2"
       height="12"
       x="624"
       y="217" />
  </g>
</svg>
